<svg width="101" height="19" viewBox="0 0 101 19" fill="none" xmlns="http://www.w3.org/2000/svg">
<g clip-path="url(#clip0_89_1426)">
<path d="M9.18184 18.3636C14.253 18.3636 18.3637 14.2529 18.3637 9.18176V2.75448C18.3637 2.02393 18.0734 1.3233 17.5569 0.806727C17.0403 0.290149 16.3397 -6.10352e-05 15.6091 -6.10352e-05H9.64093V4.028C9.64093 4.9471 9.69694 5.89926 10.179 6.68155C10.5241 7.24219 10.9857 7.72205 11.5326 8.08857C12.0795 8.45508 12.6988 8.69968 13.3485 8.80576L13.5244 8.83422C13.5969 8.859 13.6598 8.90583 13.7044 8.96814C13.7489 9.03046 13.7729 9.10515 13.7729 9.18176C13.7729 9.25836 13.7489 9.33305 13.7044 9.39537C13.6598 9.45769 13.5969 9.50451 13.5244 9.52929L13.3485 9.55775C12.3992 9.71283 11.5226 10.1622 10.8424 10.8423C10.1623 11.5225 9.71291 12.3991 9.55784 13.3485L9.52937 13.5243C9.50459 13.5968 9.45777 13.6597 9.39545 13.7043C9.33314 13.7488 9.25845 13.7728 9.18184 13.7728C9.10523 13.7728 9.03054 13.7488 8.96823 13.7043C8.90591 13.6597 8.85909 13.5968 8.83431 13.5243L8.80584 13.3485C8.69973 12.6987 8.45513 12.0794 8.08861 11.5326C7.7221 10.9857 7.24226 10.524 6.68163 10.1789C5.89934 9.69686 4.94719 9.64085 4.02809 9.64085H0.0110402C0.251145 14.4985 4.26498 18.3636 9.18184 18.3636Z" fill="#375DFB"/>
<path d="M0 8.72272H4.02806C4.94716 8.72272 5.89932 8.66671 6.68161 8.18467C7.29313 7.80789 7.80789 7.29312 8.18467 6.6816C8.66672 5.89931 8.72273 4.94716 8.72273 4.02806V-5.54865e-06H2.75455C2.02399 -5.54865e-06 1.32337 0.290205 0.806788 0.806782C0.29021 1.32336 0 2.02399 0 2.75454V8.72272Z" fill="#375DFB"/>
<path d="M97.1948 5.55684C99.7616 5.55684 101 7.34959 101 9.42606V13.326H98.3141V9.88882C98.3141 8.94768 97.9707 8.1709 96.9859 8.1709C96.0012 8.1709 95.6729 8.94768 95.6729 9.88882V13.3256H92.9868V9.88882C92.9868 8.94768 92.6585 8.1709 91.6733 8.1709C90.6886 8.1709 90.3452 8.94768 90.3452 9.88882V13.3256H87.6595V9.4256C87.6595 7.34913 88.8977 5.55638 91.4644 5.55638C92.8674 5.55638 93.882 6.10912 94.3448 7.02042C94.8369 6.10912 95.9117 5.55684 97.1948 5.55684ZM82.8326 10.9355C83.698 10.9355 84.0712 10.1436 84.0712 9.20202V5.85525H86.7569V9.53073C86.7569 11.727 85.4738 13.5501 82.8326 13.5501C80.191 13.5501 78.9078 11.7275 78.9078 9.53073V5.85525H81.594V9.20202C81.594 10.1432 81.9668 10.9355 82.8326 10.9355ZM74.9583 13.5648C73.272 13.5648 72.1826 12.9822 71.5408 11.8468L73.4809 10.756C73.7495 11.234 74.1521 11.4731 74.8238 11.4731C75.3761 11.4731 75.6295 11.2789 75.6295 11.0398C75.6295 10.1285 71.69 11.0549 71.69 8.15667C71.69 6.75185 72.8837 5.61652 74.9133 5.61652C76.6891 5.61652 77.6591 6.48282 78.092 7.31975L76.1519 8.42524C75.988 7.97716 75.4803 7.70814 74.973 7.70814C74.585 7.70814 74.3762 7.87249 74.3762 8.09653C74.3762 9.02297 78.3156 8.17136 78.3156 10.9801C78.3156 12.5488 76.7786 13.5648 74.9583 13.5648ZM65.5735 16.7623H62.8874V9.57572C62.8874 7.28945 64.6035 5.63121 66.9912 5.63121C69.3193 5.63121 71.095 7.40927 71.095 9.57572C71.095 11.9662 69.513 13.5501 67.1404 13.5501C66.5881 13.5501 66.0363 13.3857 65.5735 13.1314V16.7623ZM66.9912 11.0251C67.8419 11.0251 68.4089 10.3677 68.4089 9.59041C68.4089 8.79894 67.8419 8.15621 66.9912 8.15621C66.1405 8.15621 65.5735 8.79894 65.5735 9.59087C65.5735 10.3677 66.1405 11.0251 66.9912 11.0251ZM60.1967 5.06377C59.3161 5.06377 58.5853 4.33152 58.5853 3.45007C58.5853 2.56861 59.3161 1.83636 60.1967 1.83636C61.0772 1.83636 61.8085 2.56861 61.8085 3.45007C61.8085 4.33152 61.0772 5.06377 60.1967 5.06377ZM58.8538 5.85525H61.54V13.326H58.8538V5.85525ZM53.7001 13.5501C51.372 13.5501 49.5963 11.7573 49.5963 9.57572C49.5963 7.40927 51.372 5.61652 53.7001 5.61652C56.0281 5.61652 57.8039 7.40927 57.8039 9.57572C57.8039 11.7573 56.0281 13.5501 53.7001 13.5501ZM53.7001 11.0251C54.5508 11.0251 55.1178 10.3677 55.1178 9.59041C55.1178 8.79894 54.5508 8.14152 53.7001 8.14152C52.8494 8.14152 52.2824 8.79894 52.2824 9.59041C52.2824 10.3677 52.8494 11.0251 53.7001 11.0251ZM44.5242 16.9864C42.6741 16.9864 41.3308 16.1646 40.6444 14.7001L42.8678 13.5051C43.1066 14.0133 43.5542 14.5362 44.4792 14.5362C45.4498 14.5362 46.0911 13.9233 46.1659 12.8477C45.8078 13.1617 45.2404 13.4004 44.3902 13.4004C42.3155 13.4004 40.644 11.8019 40.644 9.56057C40.644 7.39458 42.4202 5.63121 44.7483 5.63121C47.136 5.63121 48.8521 7.28991 48.8521 9.57572V12.5341C48.8521 15.2235 46.9863 16.9864 44.5242 16.9864ZM44.7033 10.8759C45.509 10.8759 46.1209 10.3227 46.1209 9.50089C46.1209 8.69426 45.5094 8.15621 44.7033 8.15621C43.9123 8.15621 43.2856 8.69426 43.2856 9.50135C43.2856 10.3231 43.9123 10.8759 44.7033 10.8759ZM36.088 13.5501C33.7599 13.5501 31.9837 11.7573 31.9837 9.57572C31.9837 7.40927 33.7599 5.61652 36.088 5.61652C38.4156 5.61652 40.1918 7.40927 40.1918 9.57572C40.1918 11.7573 38.416 13.5501 36.088 13.5501ZM36.088 11.0251C36.9387 11.0251 37.5056 10.3677 37.5056 9.59041C37.5056 8.79894 36.9387 8.14152 36.088 8.14152C35.2373 8.14152 34.6703 8.79894 34.6703 9.59041C34.6703 10.3677 35.2373 11.0251 36.088 11.0251ZM27.0925 3.24118V10.7859H31.5398V13.326H26.7193C25.0184 13.326 24.332 12.4294 24.332 11.0099V3.24118H27.0925Z" fill="#0E1534"/>
</g>
<defs>
<clipPath id="clip0_89_1426">
<rect width="101" height="18.3636" fill="white"/>
</clipPath>
</defs>
</svg>
