<svg width="48" height="48" viewBox="0 0 48 48" fill="none" xmlns="http://www.w3.org/2000/svg">
<foreignObject x="-20" y="-20" width="88" height="88"><div xmlns="http://www.w3.org/1999/xhtml" style="backdrop-filter:blur(10px);clip-path:url(#bgblur_0_160_1190_clip_path);height:100%;width:100%"></div></foreignObject><g data-figma-bg-blur-radius="20">
<rect width="48" height="48" rx="24" fill="#F5F5F5"/>
<path d="M24.0001 13.9962C28.05 13.9962 31.3568 17.191 31.4959 21.2453L31.5001 21.4962V25.5932L32.8801 28.7492C32.9492 28.9071 32.9848 29.0776 32.9848 29.25C32.9848 29.9404 32.4252 30.5 31.7348 30.5L27.0001 30.5015C27.0001 32.1584 25.657 33.5015 24.0001 33.5015C22.4024 33.5015 21.0965 32.2526 21.0052 30.6778L20.9997 30.4992L16.275 30.5C16.1036 30.5 15.9341 30.4648 15.777 30.3965C15.1438 30.1215 14.8534 29.3852 15.1285 28.752L16.5001 25.5942V21.4961C16.5007 17.3413 19.8522 13.9962 24.0001 13.9962ZM25.4997 30.4992L22.5001 30.5015C22.5001 31.3299 23.1717 32.0015 24.0001 32.0015C24.7798 32.0015 25.4206 31.4066 25.4932 30.646L25.4997 30.4992ZM24.0001 15.4962C20.6799 15.4962 18.0006 18.1705 18.0001 21.4962V25.9059L16.6561 29H31.3526L30.0001 25.9068L30.0002 21.5091L29.9965 21.2839C29.8854 18.0504 27.2417 15.4962 24.0001 15.4962Z" fill="#242424"/>
<circle cx="31" cy="17" r="4" fill="#FF4C5E"/>
</g>
<defs>
<clipPath id="bgblur_0_160_1190_clip_path" transform="translate(20 20)"><rect width="48" height="48" rx="24"/>
</clipPath></defs>
</svg>
